<?xml version="1.0" encoding="UTF-8"?>
<svg id="graphics" xmlns="http://www.w3.org/2000/svg" xmlns:xlink="http://www.w3.org/1999/xlink" version="1.1" viewBox="0 0 979.4 759.9">
  <!-- Generator: Adobe Illustrator 29.4.0, SVG Export Plug-In . SVG Version: 2.1.0 Build 152)  -->
  <defs>
    <style>
      .st0 {
        fill: url(#linear-gradient);
      }
    </style>
    <linearGradient id="linear-gradient" x1="177.9" y1="1124.2" x2="783.7" y2="475.5" gradientTransform="translate(0 1175.3) scale(1 -1)" gradientUnits="userSpaceOnUse">
      <stop offset="0" stop-color="#dec699"/>
      <stop offset="1" stop-color="#b8a379"/>
    </linearGradient>
  </defs>
  <path class="st0" d="M842,326.2h-2c.4-76.1-15.4-140.7-40.3-208.4-55,8.1-105.1,20.7-162.4,50.8C599.9,89.2,550.6,38.4,489.7,0c-60.9,38.4-110.3,89.2-147.6,168.6-57.3-30.1-107.4-42.7-162.4-50.8-24.9,67.7-40.8,132.3-40.3,208.4h-2c-52.2,0-91.2,9.4-137.3,24.4,21.5,95.2,60.7,178.3,135.3,253.6,114.5,115.4,245.9,142.1,330.8,155.8-182.6-76.8-286.1-237.9-297.9-404.6-.7-8.2-1.3-15.9-1.1-28-.5-58.1,9.9-118,30.9-178.5,46.7,8.1,91.3,23.3,132.9,45.4-21.6,54.4-32.7,112.2-31.4,163.3-31.1-11-66.1-21.5-104.6-27.1-.2,9.7.2,19.7,1.2,28.3,53.4,8.5,98.7,26.5,134.6,40.1-2.6-26.3-13.2-93.1,24.6-190.7,3.9-10.3,6.2-15.3,11-25.8,21.8-46.8,59.8-106.6,123.3-149.2,63.5,42.7,101.6,102.4,123.3,149.2-47.8,28.8-89.9,65.9-123.1,108.3l-.3-.4-.3.4c-28.4-36.4-63.4-68.8-103.1-95.5-3.8,8.1-7.6,17-10.9,26.2,37.7,26.1,70.8,57.8,97.2,93.2,7.7,10.6,9.2,11.7,17,24.8,66.7,105.8,66.7,223.3,0,314.3-61.1-83.4-66.2-189-15.3-287.4-5.4-9-11.3-17.9-17.6-26-66.8,117.6-59.4,246.8,22.2,344.9l10.7,12.8,10.7-12.8c87.7-105.2,89.8-246.4,6.3-370.5,31-41.6,71.2-78,117.3-106.3,8.4-5.3,14.3-9,24.4-13.9,41.6-22.1,86.3-37.3,132.9-45.4,21,60.5,31.4,120.5,30.9,178.5-49.6,3.8-93.9,16.5-132.3,30.1,1.1-44.4-7.1-93.9-23.5-141.7-8.5,4.3-17.2,9.5-24.5,14.2,28.4,85.8,19.2,144.6,16.8,168.9,42-15.9,96.8-37.9,162.5-43.5,10.7-1.1,15.1-1.2,28-1.3,36.1-.4,71.2,4.7,107.4,15.3-35.9,141-136.5,257.4-267.8,315.2,85.2-77.8,143.9-184.9,158.1-304.9-8.7,0-18.2.3-28.2,1-20,157.5-121.9,306.4-295.3,379.3,84.9-13.6,216.3-40.3,330.8-155.8,74.6-75.2,113.9-158.4,135.3-253.6-46.1-15-85.1-24.4-137.3-24.4h0ZM300.7,684.5c-131.3-57.8-231.9-174.2-267.8-315.2,36.2-10.6,71.3-15.7,107.4-15.3,8.3,130.3,69.1,247.3,160.4,330.5h0Z"/>
</svg>