<?xml version="1.0" encoding="UTF-8"?>
<svg id="graphics" xmlns="http://www.w3.org/2000/svg" xmlns:xlink="http://www.w3.org/1999/xlink" version="1.1" viewBox="0 0 2429.9 1164.1">
  <!-- Generator: Adobe Illustrator 29.4.0, SVG Export Plug-In . SVG Version: 2.1.0 Build 152)  -->
  <defs>
    <style>
      .st0 {
        fill: url(#linear-gradient);
      }

      .st1 {
        fill: #3a3a3a;
      }
    </style>
    <linearGradient id="linear-gradient" x1="903.2" y1="1124.2" x2="1509" y2="475.5" gradientTransform="translate(0 1175.3) scale(1 -1)" gradientUnits="userSpaceOnUse">
      <stop offset="0" stop-color="#dec699"/>
      <stop offset="1" stop-color="#b8a379"/>
    </linearGradient>
  </defs>
  <g>
    <g>
      <path class="st1" d="M1473,1090.9h17.3v60.7h37.5v14.1h-54.9v-74.9h0Z"/>
      <path class="st1" d="M1545.1,1090.9c0-5.2,4.2-9.3,10.4-9.3s10.4,3.9,10.4,9-4.2,9.6-10.4,9.6-10.4-4.1-10.4-9.3ZM1547.1,1108.3h16.7v57.5h-16.7v-57.5Z"/>
      <path class="st1" d="M1640.9,1133v32.8h-15.6v-7.2c-3.1,5.2-9.1,8-17.5,8-13.5,0-21.5-7.5-21.5-17.4s7.2-17.2,24.7-17.2h13.3c0-7.2-4.3-11.3-13.3-11.3s-12.4,2-16.6,5.4l-6-11.7c6.3-4.5,15.6-6.9,24.8-6.9,17.5,0,27.7,8.1,27.7,25.6h0ZM1624.2,1147.6v-5.9h-11.4c-7.8,0-10.3,2.9-10.3,6.7s3.5,6.9,9.4,6.9,10.4-2.6,12.3-7.8Z"/>
      <path class="st1" d="M1725.9,1086.4v79.3h-15.9v-6.6c-4.2,5-10.3,7.5-18,7.5-16.2,0-28.8-11.6-28.8-29.6s12.5-29.6,28.8-29.6,13.1,2.2,17.2,6.9v-27.9h16.7,0ZM1709.6,1137c0-9.9-6.4-15.9-14.6-15.9s-14.8,6-14.8,15.9,6.4,15.9,14.8,15.9,14.6-6,14.6-15.9Z"/>
      <path class="st1" d="M1794.2,1090.9h17.3v60.7h37.5v14.1h-54.9v-74.9h0Z"/>
      <path class="st1" d="M1923.9,1141.7h-43.5c1.6,7.2,7.7,11.6,16.5,11.6s10.5-1.8,14.4-5.6l8.9,9.6c-5.4,6.1-13.4,9.3-23.7,9.3-19.9,0-32.8-12.5-32.8-29.6s13.1-29.6,30.7-29.6,29.9,11.3,29.9,29.8-.2,3.1-.3,4.5h0ZM1880.1,1132h28.3c-1.2-7.3-6.6-12-14.1-12s-13.1,4.6-14.2,12Z"/>
      <path class="st1" d="M2002,1108.3l-24.3,57.5h-17.2l-24.2-57.5h17.2l15.9,39.1,16.5-39.1h16Z"/>
      <path class="st1" d="M2017.5,1090.9c0-5.2,4.2-9.3,10.4-9.3s10.4,3.9,10.4,9-4.2,9.6-10.4,9.6-10.4-4.1-10.4-9.3ZM2019.6,1108.3h16.7v57.5h-16.7v-57.5Z"/>
      <path class="st1" d="M2121.3,1132.8v32.9h-16.7v-30.4c0-9.3-4.3-13.6-11.7-13.6s-13.8,4.9-13.8,15.5v28.4h-16.7v-57.5h15.9v6.7c4.5-4.9,11.2-7.6,19-7.6,13.6,0,23.9,7.9,23.9,25.4h0Z"/>
    </g>
    <path class="st1" d="M1391.8,1117.4h36v13.4h-36v-13.4Z"/>
    <g>
      <path class="st1" d="M314,1102.2l60.6,2.3v56.5c-.1,0-57.7,3.2-57.7,3.2v-48.7h-8.1l5.3-13.2h0ZM360.5,1150.9v-35.5h-29.7v35.5h29.7Z"/>
      <path class="st1" d="M396.1,1115.4l5.2-13.2,17.6,2.3v34l-14,2.5v-25.5h-8.8Z"/>
      <path class="st1" d="M440.5,1115.4l5.2-13.2,46.4,2.3v57.2l-13.9,2.5v-48.7h-37.7Z"/>
      <path class="st1" d="M513.7,1115.4l5.2-13.2,17.6,2.3v34l-14,2.5v-25.5h-8.8Z"/>
      <path class="st1" d="M622.8,1102.2l13.7,2.3v45.9l-10.7,11.8-58.8,2v-48.7h-8.8l5.2-13.2,17.3,2.3v46.4h36.2l6-6.8v-41.9h0ZM594.9,1143.3v-38.9l13.7-2.3v38.6l-13.7,2.5Z"/>
      <path class="st1" d="M658.6,1115.4l5.2-13.2,46.8,2.3v45.4l-12.1,12.2-39.9,2v-13.2h31.2l6.9-7.1v-28.4h-38.1Z"/>
      <path class="st1" d="M737.4,1102.2l17.6,2.3v8.1l4.2-10.4,38.7,2.3v55.4l-31.4,4.3v-13.2h17.4v-35.5h-28.8v46.2l-14,2.5v-48.7h-8.8l5.2-13.2h0Z"/>
      <path class="st1" d="M868.1,1102.2l59,2.3v45.9l-11.2,11.8-44.2,2v-48.7h-8.8l5.2-13.2h0ZM906.4,1150.9l6.7-6.6v-28.9h-27.3v35.5h20.7,0Z"/>
      <path class="st1" d="M948.6,1115.4l5.2-13.2,17.6,2.3v34l-14,2.5v-25.5h-8.8Z"/>
      <path class="st1" d="M1030.7,1115.4l5.3-13.2,20.2,2.3v45.9l-11.2,11.8-44.6,2v-48.7h-8.8l5.2-13.2,17.6,2.3v46.4h21l6.8-6.8v-28.7h-11.5Z"/>
      <path class="st1" d="M1097.7,1122.2l-3.3,39.4-15,2.5,7.3-48.7h-8.7l5.2-13.2,15.9,2.4,22.3,29.7,3.8-32.1,14.6,2.4-6.1,32.9-8.4,2.1,16.5,22-15,2.5-29.2-41.9h0Z"/>
      <path class="st1" d="M1163.7,1115.4v-31.3l14.2,1.6v16.5l38.4,2.3v55.4l-36.4,4.3v-13.2h22.4v-35.5h-38.7Z"/>
      <path class="st1" d="M1237.9,1115.4l5.2-13.2,17.6,2.3v34l-14,2.5v-25.5h-8.8Z"/>
      <path class="st1" d="M1287.5,1102.2l59.6,2.3v56.1l-55.9,3.6v-13.2h42v-35.5h-28v20.4l-14,1.9v-22.4h-8.8l5.2-13.2h0Z"/>
    </g>
  </g>
  <g>
    <path class="st1" d="M0,866.8h22.8v103.7h64.3v19.3H0v-123h0Z"/>
    <path class="st1" d="M182.1,928.4c0-36.4,28.1-63.3,66.3-63.3s66.3,26.7,66.3,63.3-28.1,63.3-66.3,63.3-66.3-26.9-66.3-63.3ZM291.6,928.4c0-25.1-18.5-43.2-43.2-43.2s-43.2,18.1-43.2,43.2,18.5,43.2,43.2,43.2,43.2-18.1,43.2-43.2Z"/>
    <path class="st1" d="M449.9,886.2h-40.8v-19.3h104.4v19.3h-40.8v103.7h-22.8v-103.7h0Z"/>
    <path class="st1" d="M615.3,936.3v-69.4h22.8v68.5c0,25.3,11.4,36.2,31.3,36.2s31.1-10.9,31.1-36.2v-68.5h22.5v69.4c0,35.8-20.2,55.4-53.8,55.4s-54-19.5-54-55.4Z"/>
    <path class="st1" d="M832.5,976.9l7.9-17.8c9.8,7.9,25.5,13.5,40.6,13.5s27.2-6.8,27.2-16c0-26.5-73.1-9.1-73.1-54.8s15.8-36.7,49.6-36.7,30.2,3.9,40.9,10.9l-7.2,17.8c-11.1-6.5-23.2-9.7-33.9-9.7-19,0-26.7,7.4-26.7,16.7,0,26.2,72.9,9.1,72.9,54.3s-16,36.6-49.7,36.6-38.3-6-48.5-14.8h0Z"/>
    <path class="st1" d="M1280.7,910.6c0,27.1-20,43.8-52.4,43.8h-27.8v35.5h-22.8v-123h50.6c32.3,0,52.4,16.5,52.4,43.8h0ZM1257.7,910.6c0-15.5-10.4-24.4-30.4-24.4h-26.7v48.9h26.7c20,0,30.4-9,30.4-24.4h0Z"/>
    <path class="st1" d="M1391.4,866.8h22.8v123h-22.8v-123Z"/>
    <path class="st1" d="M1535.4,866.8h22.9v103.7h64.3v19.3h-87.2v-123h0Z"/>
    <path class="st1" d="M1809.2,961.4h-61.5l-12.1,28.5h-23.6l55.4-123h22.5l55.5,123h-23.9l-12.3-28.5h0ZM1801.6,943.5l-23.2-53.8-23,53.8h46.2Z"/>
    <path class="st1" d="M1967.7,886.2h-40.8v-19.3h104.4v19.3h-40.8v103.7h-22.9v-103.7h0Z"/>
    <path class="st1" d="M2228.7,970.7v19.2h-92.3v-123h89.8v19.2h-67v32h59.4v18.8h-59.4v33.9h69.4Z"/>
    <path class="st1" d="M2331.7,976.9l7.9-17.8c9.8,7.9,25.5,13.5,40.6,13.5s27.2-6.8,27.2-16c0-26.5-73.1-9.1-73.1-54.8s15.8-36.7,49.6-36.7,30.2,3.9,40.9,10.9l-7.2,17.8c-11.1-6.5-23.2-9.7-33.9-9.7-19,0-26.7,7.4-26.7,16.7,0,26.2,72.9,9.1,72.9,54.3s-16,36.6-49.7,36.6-38.3-6-48.5-14.8h0Z"/>
  </g>
  <path class="st0" d="M1567.3,326.2h-2c.4-76.1-15.4-140.7-40.3-208.4-55,8.1-105.1,20.7-162.4,50.8-37.4-79.4-86.7-130.2-147.6-168.6-60.9,38.4-110.3,89.2-147.6,168.6-57.3-30.1-107.4-42.7-162.4-50.8-24.9,67.7-40.8,132.3-40.3,208.4h-2c-52.2,0-91.2,9.4-137.3,24.4,21.5,95.2,60.7,178.3,135.3,253.6,114.5,115.4,245.9,142.1,330.8,155.8-182.6-76.8-286.1-237.9-297.9-404.6-.7-8.2-1.3-15.9-1.1-28-.5-58.1,9.9-118,30.9-178.5,46.7,8.1,91.3,23.3,132.9,45.4-21.6,54.4-32.7,112.2-31.4,163.3-31.1-11-66.1-21.5-104.6-27.1-.2,9.7.2,19.7,1.2,28.3,53.4,8.5,98.7,26.5,134.6,40.1-2.6-26.3-13.2-93.1,24.6-190.7,3.9-10.3,6.2-15.3,11-25.8,21.8-46.8,59.8-106.6,123.3-149.2,63.5,42.7,101.6,102.4,123.3,149.2-47.8,28.8-89.9,65.9-123.1,108.3l-.3-.4-.3.4c-28.4-36.4-63.4-68.8-103.1-95.5-3.8,8.1-7.6,17-10.9,26.2,37.7,26.1,70.8,57.8,97.2,93.2,7.7,10.6,9.2,11.7,17,24.8,66.7,105.8,66.7,223.3,0,314.3-61.1-83.4-66.2-189-15.3-287.4-5.4-9-11.3-17.9-17.6-26-66.8,117.6-59.4,246.8,22.2,344.9l10.7,12.8,10.7-12.8c87.7-105.2,89.8-246.4,6.3-370.5,31-41.6,71.2-78,117.3-106.3,8.4-5.3,14.3-9,24.4-13.9,41.6-22.1,86.3-37.3,132.9-45.4,21,60.5,31.4,120.5,30.9,178.5-49.6,3.8-93.9,16.5-132.3,30.1,1.1-44.4-7.1-93.9-23.5-141.7-8.5,4.3-17.2,9.5-24.5,14.2,28.4,85.8,19.2,144.6,16.8,168.9,42-15.9,96.8-37.9,162.5-43.5,10.7-1.1,15.1-1.2,28-1.3,36.1-.4,71.2,4.7,107.4,15.3-35.9,141-136.5,257.4-267.8,315.2,85.2-77.8,143.9-184.9,158.1-304.9-8.7,0-18.2.3-28.2,1-20,157.5-121.9,306.4-295.3,379.3,84.9-13.6,216.3-40.3,330.8-155.8,74.6-75.2,113.9-158.4,135.3-253.6-46.1-15-85.1-24.4-137.3-24.4h0ZM1026,684.5c-131.3-57.8-231.9-174.2-267.8-315.2,36.2-10.6,71.3-15.7,107.4-15.3,8.3,130.3,69.1,247.3,160.4,330.5h0Z"/>
</svg>